# xmcd
# Copyright (C) 1995-1998 Ti Kan
#
# Track frame offsets:
#       150
#       17830
#       38605
#       54064
#       71747
#       87112
#       102731
#       116385
#       119877
#       138786
#       154887
#       165967
#       183513
#
# Disc length: 2587 seconds
#
# Revision: 0
# Processed by: cddbd v1.5.2PL0 Copyright (c) Steve Scherf et al.
# Submitted via: CD-Import v1.0
#
DISCID=a60a190d
DTITLE=Dobet Gnahoré - Djekpa La You
DYEAR=10
DGENRE=
TTITLE0=Boudou
TTITLE1=Nfletoun
TTITLE2=Samahani
TTITLE3=Kokpa
TTITLE4=Cote D'ivoire
TTITLE5=Beussem
TTITLE6=Mouziguie
TTITLE7=Wigue
TTITLE8=Evigne
TTITLE9=Deka
TTITLE10=Salde
TTITLE11=Nko
TTITLE12=Chilouva
EXTD=
EXTT0=
EXTT1=
EXTT2=
EXTT3=
EXTT4=
EXTT5=
EXTT6=
EXTT7=
EXTT8=
EXTT9=
EXTT10=
EXTT11=
EXTT12=
PLAYORDER=
